<svg id="visual" viewBox="0 0 960 240" width="960" height="240" xmlns="http://www.w3.org/2000/svg" xmlns:xlink="http://www.w3.org/1999/xlink" version="1.1"><rect x="0" y="0" width="960" height="240" fill="#272235"></rect><path d="M0 91L22.8 88.5C45.7 86 91.3 81 137 80.8C182.7 80.7 228.3 85.3 274 88.3C319.7 91.3 365.3 92.7 411.2 91.8C457 91 503 88 548.8 86.7C594.7 85.3 640.3 85.7 686 87.7C731.7 89.7 777.3 93.3 823 94.7C868.7 96 914.3 95 937.2 94.5L960 94L960 0L937.2 0C914.3 0 868.7 0 823 0C777.3 0 731.7 0 686 0C640.3 0 594.7 0 548.8 0C503 0 457 0 411.2 0C365.3 0 319.7 0 274 0C228.3 0 182.7 0 137 0C91.3 0 45.7 0 22.8 0L0 0Z" fill="#ffa571"></path><path d="M0 60L22.8 62.8C45.7 65.7 91.3 71.3 137 70.2C182.7 69 228.3 61 274 60.2C319.7 59.3 365.3 65.7 411.2 69C457 72.3 503 72.7 548.8 69.7C594.7 66.7 640.3 60.3 686 59.2C731.7 58 777.3 62 823 65.5C868.7 69 914.3 72 937.2 73.5L960 75L960 0L937.2 0C914.3 0 868.7 0 823 0C777.3 0 731.7 0 686 0C640.3 0 594.7 0 548.8 0C503 0 457 0 411.2 0C365.3 0 319.7 0 274 0C228.3 0 182.7 0 137 0C91.3 0 45.7 0 22.8 0L0 0Z" fill="#f78e5d"></path><path d="M0 50L22.8 49.3C45.7 48.7 91.3 47.3 137 47C182.7 46.7 228.3 47.3 274 46.7C319.7 46 365.3 44 411.2 46.5C457 49 503 56 548.8 55C594.7 54 640.3 45 686 44.5C731.7 44 777.3 52 823 53C868.7 54 914.3 48 937.2 45L960 42L960 0L937.2 0C914.3 0 868.7 0 823 0C777.3 0 731.7 0 686 0C640.3 0 594.7 0 548.8 0C503 0 457 0 411.2 0C365.3 0 319.7 0 274 0C228.3 0 182.7 0 137 0C91.3 0 45.7 0 22.8 0L0 0Z" fill="#ef764c"></path><path d="M0 27L22.8 29.7C45.7 32.3 91.3 37.7 137 39.7C182.7 41.7 228.3 40.3 274 38.2C319.7 36 365.3 33 411.2 33.3C457 33.7 503 37.3 548.8 36.5C594.7 35.7 640.3 30.3 686 30.3C731.7 30.3 777.3 35.7 823 37.8C868.7 40 914.3 39 937.2 38.5L960 38L960 0L937.2 0C914.3 0 868.7 0 823 0C777.3 0 731.7 0 686 0C640.3 0 594.7 0 548.8 0C503 0 457 0 411.2 0C365.3 0 319.7 0 274 0C228.3 0 182.7 0 137 0C91.3 0 45.7 0 22.8 0L0 0Z" fill="#e65d3d"></path><path d="M0 24L22.8 24.7C45.7 25.3 91.3 26.7 137 27.2C182.7 27.7 228.3 27.3 274 26.7C319.7 26 365.3 25 411.2 24C457 23 503 22 548.8 22.2C594.7 22.3 640.3 23.7 686 24.3C731.7 25 777.3 25 823 23.8C868.7 22.7 914.3 20.3 937.2 19.2L960 18L960 0L937.2 0C914.3 0 868.7 0 823 0C777.3 0 731.7 0 686 0C640.3 0 594.7 0 548.8 0C503 0 457 0 411.2 0C365.3 0 319.7 0 274 0C228.3 0 182.7 0 137 0C91.3 0 45.7 0 22.8 0L0 0Z" fill="#dd3f31"></path></svg>