<svg id="visual" viewBox="0 0 900 240" width="900" height="240" xmlns="http://www.w3.org/2000/svg" xmlns:xlink="http://www.w3.org/1999/xlink" version="1.1"><rect x="0" y="0" width="900" height="240" fill="#272235"></rect><path d="M0 87L21.5 85C43 83 86 79 128.8 76.7C171.7 74.3 214.3 73.7 257.2 71.7C300 69.7 343 66.3 385.8 65C428.7 63.7 471.3 64.3 514.2 69C557 73.7 600 82.3 642.8 81.7C685.7 81 728.3 71 771.2 68.7C814 66.3 857 71.7 878.5 74.3L900 77L900 0L878.5 0C857 0 814 0 771.2 0C728.3 0 685.7 0 642.8 0C600 0 557 0 514.2 0C471.3 0 428.7 0 385.8 0C343 0 300 0 257.2 0C214.3 0 171.7 0 128.8 0C86 0 43 0 21.5 0L0 0Z" fill="#f75757"></path><path d="M0 55L21.5 54.3C43 53.7 86 52.3 128.8 51.5C171.7 50.7 214.3 50.3 257.2 53.7C300 57 343 64 385.8 65C428.7 66 471.3 61 514.2 58.7C557 56.3 600 56.7 642.8 56.7C685.7 56.7 728.3 56.3 771.2 60.3C814 64.3 857 72.7 878.5 76.8L900 81L900 0L878.5 0C857 0 814 0 771.2 0C728.3 0 685.7 0 642.8 0C600 0 557 0 514.2 0C471.3 0 428.7 0 385.8 0C343 0 300 0 257.2 0C214.3 0 171.7 0 128.8 0C86 0 43 0 21.5 0L0 0Z" fill="#fa4b5a"></path><path d="M0 46L21.5 47C43 48 86 50 128.8 48.8C171.7 47.7 214.3 43.3 257.2 40.8C300 38.3 343 37.7 385.8 38.5C428.7 39.3 471.3 41.7 514.2 42.5C557 43.3 600 42.7 642.8 44C685.7 45.3 728.3 48.7 771.2 49.2C814 49.7 857 47.3 878.5 46.2L900 45L900 0L878.5 0C857 0 814 0 771.2 0C728.3 0 685.7 0 642.8 0C600 0 557 0 514.2 0C471.3 0 428.7 0 385.8 0C343 0 300 0 257.2 0C214.3 0 171.7 0 128.8 0C86 0 43 0 21.5 0L0 0Z" fill="#fc3c5d"></path><path d="M0 41L21.5 41.3C43 41.7 86 42.3 128.8 41C171.7 39.7 214.3 36.3 257.2 35.7C300 35 343 37 385.8 37.5C428.7 38 471.3 37 514.2 37.8C557 38.7 600 41.3 642.8 41.8C685.7 42.3 728.3 40.7 771.2 39.8C814 39 857 39 878.5 39L900 39L900 0L878.5 0C857 0 814 0 771.2 0C728.3 0 685.7 0 642.8 0C600 0 557 0 514.2 0C471.3 0 428.7 0 385.8 0C343 0 300 0 257.2 0C214.3 0 171.7 0 128.8 0C86 0 43 0 21.5 0L0 0Z" fill="#fe2961"></path><path d="M0 24L21.5 24.3C43 24.7 86 25.3 128.8 25C171.7 24.7 214.3 23.3 257.2 21.5C300 19.7 343 17.3 385.8 18.2C428.7 19 471.3 23 514.2 24.5C557 26 600 25 642.8 23.3C685.7 21.7 728.3 19.3 771.2 18.5C814 17.7 857 18.3 878.5 18.7L900 19L900 0L878.5 0C857 0 814 0 771.2 0C728.3 0 685.7 0 642.8 0C600 0 557 0 514.2 0C471.3 0 428.7 0 385.8 0C343 0 300 0 257.2 0C214.3 0 171.7 0 128.8 0C86 0 43 0 21.5 0L0 0Z" fill="#ff0066"></path></svg>